<mxfile host="app.diagrams.net" modified="2020-09-12T16:07:49.891Z" agent="5.0 (Windows NT 10.0; Win64; x64) AppleWebKit/537.36 (KHTML, like Gecko) Chrome/85.0.4183.102 Safari/537.36 Edg/85.0.564.51" etag="R5Iq0UKmpAwesi8YpoGN" version="13.6.10" type="github">
  <diagram id="vNaJUpMdq5fC-LcV71pj" name="Page-1">
    <mxGraphModel dx="1357" dy="794" grid="1" gridSize="10" guides="1" tooltips="1" connect="1" arrows="1" fold="1" page="1" pageScale="1" pageWidth="850" pageHeight="1100" math="0" shadow="0">
      <root>
        <mxCell id="0" />
        <mxCell id="1" parent="0" />
        <mxCell id="kPdmPvc7Pf512ZVPmU_c-7" value="&lt;h1&gt;&lt;span style=&quot;line-height: 100%&quot;&gt;Elephantsql Plans&lt;/span&gt;&lt;/h1&gt;" style="ellipse;shape=cloud;whiteSpace=wrap;html=1;fillColor=#d5e8d4;strokeColor=#82b366;align=left;sketch=1;" vertex="1" parent="1">
          <mxGeometry x="420" y="30" width="230" height="250" as="geometry" />
        </mxCell>
        <mxCell id="kPdmPvc7Pf512ZVPmU_c-8" style="edgeStyle=orthogonalEdgeStyle;rounded=0;orthogonalLoop=1;jettySize=auto;html=1;entryX=0;entryY=0.5;entryDx=0;entryDy=0;" edge="1" parent="1" source="kPdmPvc7Pf512ZVPmU_c-5" target="kPdmPvc7Pf512ZVPmU_c-6">
          <mxGeometry relative="1" as="geometry" />
        </mxCell>
        <mxCell id="kPdmPvc7Pf512ZVPmU_c-10" style="edgeStyle=orthogonalEdgeStyle;rounded=0;orthogonalLoop=1;jettySize=auto;html=1;fontSize=16;" edge="1" parent="1" source="kPdmPvc7Pf512ZVPmU_c-5" target="kPdmPvc7Pf512ZVPmU_c-9">
          <mxGeometry relative="1" as="geometry">
            <Array as="points">
              <mxPoint x="240" y="300" />
              <mxPoint x="440" y="300" />
            </Array>
          </mxGeometry>
        </mxCell>
        <mxCell id="kPdmPvc7Pf512ZVPmU_c-11" value="Spring Boot Project Jar" style="edgeLabel;html=1;align=center;verticalAlign=middle;resizable=0;points=[];fontSize=16;" vertex="1" connectable="0" parent="kPdmPvc7Pf512ZVPmU_c-10">
          <mxGeometry x="-0.2963" y="-1" relative="1" as="geometry">
            <mxPoint as="offset" />
          </mxGeometry>
        </mxCell>
        <mxCell id="kPdmPvc7Pf512ZVPmU_c-5" value="RRNHope&lt;br&gt;Spring Boot Project" style="whiteSpace=wrap;html=1;fillColor=#dae8fc;strokeColor=#6c8ebf;rounded=1;glass=0;shadow=1;sketch=1;fontStyle=1" vertex="1" parent="1">
          <mxGeometry x="160" y="170" width="160" height="80" as="geometry" />
        </mxCell>
        <mxCell id="kPdmPvc7Pf512ZVPmU_c-6" value="Postgresql" style="shape=datastore;whiteSpace=wrap;html=1;fillColor=#b1ddf0;strokeColor=#10739e;sketch=1;fontStyle=1" vertex="1" parent="1">
          <mxGeometry x="510" y="175" width="80" height="70" as="geometry" />
        </mxCell>
        <mxCell id="kPdmPvc7Pf512ZVPmU_c-9" value="Deploy on Cloud like Azure / Cloud Foundry / AWS ..." style="ellipse;shape=cloud;whiteSpace=wrap;html=1;rounded=1;shadow=1;glass=0;sketch=1;fillColor=#b1ddf0;strokeColor=#10739e;fontSize=16;fontStyle=1" vertex="1" parent="1">
          <mxGeometry x="160" y="320" width="550" height="200" as="geometry" />
        </mxCell>
      </root>
    </mxGraphModel>
  </diagram>
</mxfile>
